<svg width="1024" height="1024" viewBox="0 0 1024 1024" fill="none" xmlns="http://www.w3.org/2000/svg">
<rect x="290.271" y="420.741" width="574.829" height="388.527" rx="12" fill="#4A4A4F"/>
<path d="M297.512 823H859.667C866.441 822.992 872.936 820.278 877.726 815.453C882.517 810.628 885.211 804.086 885.219 797.262V436.925C885.211 430.102 882.517 423.559 877.726 418.734C872.936 413.909 866.441 411.195 859.667 411.187H297.512C290.737 411.195 284.242 413.909 279.452 418.734C274.662 423.559 271.967 430.102 271.959 436.925V797.262C271.967 804.086 274.662 810.628 279.452 815.453C284.242 820.278 290.737 822.992 297.512 823ZM312.843 452.368H844.335V781.819H312.843V452.368Z" fill="black"/>
<path d="M502.372 562.253H431.11V540.941H541.444L460.858 682.355H538.114V704.111H420.676L502.372 562.253ZM565.216 602.213H590.08V704.111H565.216V602.213ZM577.426 583.121C572.838 583.121 568.99 581.567 565.882 578.459C562.774 575.351 561.22 571.503 561.22 566.915C561.22 562.771 562.774 559.219 565.882 556.259C568.99 553.299 572.838 551.819 577.426 551.819C581.866 551.819 585.64 553.299 588.748 556.259C591.856 559.219 593.41 562.771 593.41 566.915C593.41 571.503 591.856 575.351 588.748 578.459C585.788 581.567 582.014 583.121 577.426 583.121ZM623.72 602.213H646.808V621.083C654.948 606.727 667.676 599.549 684.992 599.549C699.348 599.549 710.966 604.137 719.846 613.313C728.726 622.341 733.166 635.439 733.166 652.607C733.166 663.263 730.946 672.661 726.506 680.801C722.214 688.941 716.294 695.231 708.746 699.671C701.346 704.111 693.058 706.331 683.882 706.331C675.298 706.331 667.824 704.851 661.46 701.891C655.244 698.783 650.36 694.417 646.808 688.793L647.03 758.057H623.72V602.213ZM678.332 686.129C687.952 686.129 695.352 683.095 700.532 677.027C705.712 670.811 708.302 662.893 708.302 653.273C708.302 643.209 705.712 635.217 700.532 629.297C695.5 623.229 688.1 620.195 678.332 620.195C673.004 620.195 667.972 621.527 663.236 624.191C658.648 626.707 654.948 630.407 652.136 635.291C649.472 640.027 648.14 645.577 648.14 651.941V653.495C648.14 659.859 649.472 665.557 652.136 670.589C654.948 675.473 658.648 679.321 663.236 682.133C667.824 684.797 672.856 686.129 678.332 686.129Z" fill="white"/>
<rect width="600.451" height="397.884" rx="12" transform="matrix(0.984591 -0.174872 0.172432 0.985022 143.989 307.382)" fill="#E9E5DC"/>
<path d="M235.159 709.353L788.773 611.026C795.443 609.833 801.372 606.024 805.257 600.435C809.143 594.845 810.669 587.931 809.5 581.209L747.38 226.347C746.196 219.628 742.415 213.657 736.865 209.743C731.316 205.829 724.452 204.292 717.779 205.469L164.164 303.796C157.494 304.989 151.566 308.798 147.68 314.388C143.794 319.978 142.268 326.892 143.437 333.613L205.557 688.475C206.741 695.194 210.523 701.165 216.072 705.079C221.622 708.993 228.486 710.53 235.159 709.353ZM186.362 341.67L709.78 248.707L766.575 573.152L243.158 666.116L186.362 341.67Z" fill="black"/>
<path d="M358.009 555.886C343.642 558.438 330.602 557.439 318.89 552.889C307.305 548.316 297.801 541.164 290.38 531.432C282.936 521.574 278.078 510.151 275.805 497.165C273.399 483.422 274.209 470.603 278.234 458.708C282.385 446.79 289.35 436.843 299.129 428.866C308.886 420.763 320.633 415.491 334.37 413.052C340.545 411.955 346.401 411.63 351.937 412.077C357.577 412.375 362.315 413.093 366.153 414.232C369.969 415.244 372.543 416.217 373.876 417.15L367.924 437.708C359.044 432.265 348.429 430.64 336.078 432.834C327.383 434.378 319.881 437.92 313.574 443.461C307.267 449.001 302.792 456.101 300.15 464.76C297.507 473.42 297.102 482.982 298.934 493.447C300.611 503.029 303.899 511.416 308.796 518.606C313.819 525.774 320.194 531.012 327.92 534.32C335.646 537.628 344.298 538.431 353.876 536.73C364.966 534.76 375.127 529.705 384.358 521.566L393.741 538.425C391.41 541.439 386.736 544.804 379.72 548.52C372.808 552.088 365.571 554.543 358.009 555.886ZM454.787 539.283C446.973 540.67 439.407 540.129 432.087 537.659C424.871 535.041 418.651 530.685 413.427 524.593C408.306 518.352 404.94 510.63 403.329 501.426C401.739 492.348 402.05 484.103 404.261 476.69C406.598 469.255 410.649 463.075 416.415 458.151C422.18 453.227 429.41 449.993 438.106 448.448C443.147 447.553 448.028 447.596 452.748 448.578C457.468 449.56 461.572 451.106 465.06 453.216C468.526 455.201 470.984 457.364 472.434 459.707L470.263 445.077L489.734 441.619L504.93 528.427L485.648 531.851L482.588 516.6C481.24 521.519 478.039 526.248 472.986 530.785C467.911 535.197 461.844 538.029 454.787 539.283ZM455.21 521.657C462.394 520.381 468.013 516.848 472.067 511.058C476.099 505.142 477.409 498.149 475.996 490.08L475.765 488.756C474.816 483.334 472.832 478.681 469.813 474.798C466.794 470.914 463.121 468.121 458.795 466.419C454.469 464.718 449.974 464.281 445.311 465.109C437.245 466.542 431.47 470.297 427.986 476.376C424.48 482.329 423.456 489.466 424.912 497.788C426.391 506.235 429.737 512.726 434.949 517.261C440.264 521.647 447.018 523.112 455.21 521.657ZM516.622 436.843L537.039 433.217L540.018 450.238C541.019 444.08 543.479 438.833 547.398 434.497C551.317 430.161 556.176 427.478 561.973 426.448C566.006 425.732 568.845 425.618 570.489 426.106L571.262 447.224C569.996 446.669 567.472 446.727 563.691 447.399C557.768 448.451 552.68 451.304 548.427 455.96C544.3 460.593 542.965 467.07 544.421 475.392L552.235 520.025L531.818 523.651L516.622 436.843ZM639.029 506.56C631.215 507.947 623.648 507.406 616.329 504.936C609.113 502.318 602.893 497.962 597.668 491.87C592.547 485.629 589.181 477.907 587.57 468.703C585.164 454.96 587.088 443.308 593.341 433.747C599.572 424.06 609.241 418.053 622.348 415.725C629.658 414.427 636.657 415.069 643.346 417.651C650.014 420.107 654.86 423.666 657.885 428.329L654.358 413.745L644.989 360.223L665.027 356.664L689.361 495.67L669.889 499.128L666.83 483.876C665.482 488.796 662.281 493.525 657.228 498.062C652.153 502.474 646.086 505.306 639.029 506.56ZM639.419 488.745C646.602 487.469 652.221 483.936 656.275 478.146C660.308 472.23 661.617 465.237 660.205 457.167L659.973 455.844C659.024 450.422 657.04 445.769 654.021 441.885C651.002 438.002 647.33 435.209 643.003 433.507C638.677 431.805 634.183 431.369 629.52 432.197C621.454 433.629 615.679 437.385 612.195 443.464C608.689 449.417 607.664 456.554 609.121 464.875C610.6 473.323 613.945 479.814 619.157 484.348C624.473 488.734 631.227 490.2 639.419 488.745Z" fill="black"/>
</svg>
